<svg width="640" height="513" viewBox="0 0 640 513" fill="none" xmlns="http://www.w3.org/2000/svg">
<path d="M200.6 32.0416C205 19.5416 198.5 5.8416 186 1.4416C173.5 -2.9584 159.8 3.5416 155.4 16.0416L144.7 46.2416L134.8 16.4416C130.6 3.8416 117 -2.9584 104.4 1.2416C91.8 5.4416 85 19.0416 89.2 31.6416L97.5 56.6416L70.1 36.6416C59.4 28.8416 44.4 31.2416 36.6 41.9416C28.8 52.6416 31.2 67.6416 41.9 75.4416L70.2 96.0416H48C21.5 96.0416 0 117.542 0 144.042V464.042C0 490.542 21.5 512.042 48 512.042H200.6C195.2 502.642 192 491.742 192 480.042V256.042C192 226.142 212.5 201.042 240.2 194.042C242 163.042 257.3 135.842 280.3 117.942C271.7 104.742 256.9 96.0416 240 96.0416H217.8L246.1 75.4416C256.8 67.6416 259.2 52.6416 251.4 41.9416C243.6 31.2416 228.6 28.8416 217.9 36.6416L192.5 55.1416L200.6 32.0416ZM363.5 185.542L393.1 224.042H344C330.7 224.042 320 213.342 320 200.042C320 186.942 330.8 176.042 344.2 176.042C351.8 176.042 358.9 179.542 363.5 185.542ZM272 200.042C272 208.442 273.4 216.542 276.1 224.042H272C245.5 224.042 224 245.542 224 272.042V352.042H416V256.042H448V352.042H640V272.042C640 245.542 618.5 224.042 592 224.042H587.9C590.6 216.542 592 208.442 592 200.042C592 160.142 559.5 128.042 519.8 128.042C497.4 128.042 476.2 138.442 462.5 156.242L432 195.842L401.5 156.242C387.8 138.442 366.5 128.042 344.2 128.042C304.5 128.042 272 160.142 272 200.042ZM224 464.042C224 490.542 245.5 512.042 272 512.042H416V384.042H224V464.042ZM448 512.042H592C618.5 512.042 640 490.542 640 464.042V384.042H448V512.042ZM544 200.042C544 213.342 533.3 224.042 520 224.042H470.9L500.5 185.542C505.1 179.642 512.2 176.042 519.8 176.042C533.2 176.042 544 186.942 544 200.042Z" fill="#2AABEE"/>
</svg>
