<svg width="512" height="512" viewBox="0 0 512 512" fill="none" xmlns="http://www.w3.org/2000/svg">
<path d="M190.5 68.8L225.3 128H224H152C129.9 128 112 110.1 112 88C112 65.9 129.9 48 152 48H154.2C169.1 48 183 55.9 190.5 68.8ZM64 88C64 102.4 67.5 116 73.6 128H32C14.3 128 0 142.3 0 160V224C0 241.7 14.3 256 32 256H480C497.7 256 512 241.7 512 224V160C512 142.3 497.7 128 480 128H438.4C444.5 116 448 102.4 448 88C448 39.4 408.6 0 360 0H357.8C325.9 0 296.3 16.9 280.1 44.4L256 85.5L231.9 44.5C215.7 16.9 186.1 0 154.2 0H152C103.4 0 64 39.4 64 88ZM400 88C400 110.1 382.1 128 360 128H288H286.7L321.5 68.8C329.1 55.9 342.9 48 357.8 48H360C382.1 48 400 65.9 400 88ZM32 288V464C32 490.5 53.5 512 80 512H224V288H32ZM288 512H432C458.5 512 480 490.5 480 464V288H288V512Z" fill="#2AABEE"/>
</svg>
